<svg width="294" height="200" viewBox="0 0 294 200" fill="none" xmlns="http://www.w3.org/2000/svg">
<path d="M293.512 189.383H7.48047V190.255H293.512V189.383Z" fill="#CCCCCC"/>
<path d="M213.272 91.9205C211.956 84.099 207.911 76.9967 201.855 71.8746C195.799 66.7524 188.125 63.9417 180.193 63.9414H112.192C107.787 63.9389 103.423 64.8048 99.3526 66.4896C95.2817 68.1744 91.5829 70.6452 88.4675 73.7605C85.3522 76.8758 82.8815 80.5747 81.1966 84.6456C79.5118 88.7164 78.6459 93.0795 78.6484 97.4852V156.734C78.6455 161.14 79.5111 165.503 81.1958 169.574C82.8805 173.645 85.3513 177.344 88.4667 180.459C91.5822 183.574 95.2813 186.044 99.3523 187.729C103.423 189.413 107.787 190.278 112.192 190.275H180.193C184.598 190.277 188.961 189.411 193.031 187.726C197.101 186.041 200.8 183.571 203.915 180.456C207.029 177.341 209.5 173.642 211.185 169.572C212.87 165.502 213.736 161.139 213.734 156.734V97.4847C213.734 95.6204 213.58 93.7592 213.272 91.9205ZM185.948 188.844C184.048 189.182 182.123 189.352 180.193 189.352H112.192C107.908 189.356 103.665 188.515 99.7058 186.877C95.7468 185.239 92.1496 182.837 89.1201 179.807C86.0906 176.777 83.6882 173.18 82.0504 169.221C80.4126 165.262 79.5715 161.019 79.5753 156.735V137.068C79.5753 81.4965 124.622 64.8683 180.193 64.8683C188.844 64.8683 197.14 68.3047 203.257 74.4216C209.374 80.5384 212.81 88.8347 212.81 97.4852V156.734C169.081 162.586 201.217 186.128 185.948 188.845V188.844Z" fill="#E5E5E5"/>
<path d="M159.723 108.652L162.342 125.657L200.712 120.425L197.005 100.555L159.723 108.652Z" fill="#00B795"/>
<path d="M189.837 13.2305H173.973V29.652H189.837V13.2305Z" fill="#2F2E41"/>
<path d="M175.422 30.6049L179.346 18.832H186.995L187.397 30.6049H175.422Z" fill="#FFB6B6"/>
<path opacity="0.1" d="M175.422 30.6049L179.346 18.832H186.995L187.397 30.6049H175.422Z" fill="black"/>
<path d="M179.564 135.465L179.128 180.811L178.691 184.299V189.309L185.232 189.965L185.668 179.937C185.668 179.937 192.644 160.316 190.9 145.055C189.156 129.795 190.028 134.155 190.028 134.155L179.564 135.464V135.465Z" fill="#FFB6B6"/>
<path d="M183.716 139.026L167.627 181.425L166.764 184.833L164.942 189.497L158.609 187.733L161.851 178.232C161.851 178.232 162.491 157.418 169.667 143.837C176.843 130.256 174.444 134 174.444 134L183.716 139.026Z" fill="#FFB6B6"/>
<path d="M175.422 29.2954L163.649 34.5276L171.165 73.339L169.977 129.044L162.129 145.612C162.129 145.612 160.813 155.087 174.33 148.983C187.847 142.879 203.107 141.135 203.107 141.135L199.401 115.628L196.131 48.6991L196.567 33.874L186.977 27.7695L175.422 29.2954Z" fill="#2F2E41"/>
<path d="M168.865 146.216L155.801 124.346L170.73 73.3372L163.649 34.5252L176.072 29.207C176.072 29.207 182.505 35.4698 182.505 40.6348C182.505 45.7999 168.868 146.216 168.868 146.216H168.865Z" fill="#E6E6E6"/>
<path d="M197.206 141.856L185.347 39.9881C185.197 38.7017 185.416 37.3994 185.98 36.2333L189.373 29.207L202.672 32.9988L197.327 74.6467L211.611 115.628L197.207 141.857L197.206 141.856Z" fill="#E6E6E6"/>
<path d="M186.542 189.101C186.542 189.101 178.257 184.305 177.385 186.921C176.86 188.495 176.422 190.096 176.075 191.718C176.075 191.718 173.895 200.002 180.435 200.002C186.975 200.002 186.54 196.234 186.54 196.234V189.101H186.542Z" fill="#2F2E41"/>
<path d="M157.707 186.446C157.707 186.446 167.169 184.992 167.029 187.746C166.946 189.403 166.77 191.053 166.503 192.69C166.503 192.69 165.52 201.2 159.428 198.821C153.335 196.441 155.112 193.09 155.112 193.09L157.707 186.447V186.446Z" fill="#2F2E41"/>
<path d="M183.68 25.2379C189.666 25.2379 194.519 20.3849 194.519 14.3983C194.519 8.41168 189.666 3.55859 183.68 3.55859C177.693 3.55859 172.84 8.41168 172.84 14.3983C172.84 20.3849 177.693 25.2379 183.68 25.2379Z" fill="#FFB6B6"/>
<path d="M192.342 4.73839C191.838 2.06591 189.097 0.258249 186.384 0.0316513C183.671 -0.194946 181.019 0.828728 178.578 2.02833C176.896 2.79039 175.337 3.80043 173.955 5.02477C172.567 6.2633 171.643 7.93806 171.336 9.7725C171.315 10.4249 171.201 11.071 170.997 11.6912C170.666 12.4359 169.956 12.9437 169.528 13.6349C169.163 14.2701 169.039 15.0156 169.18 15.7346C169.32 16.4536 169.715 17.0979 170.292 17.5491C168.812 18.1811 167.286 18.8398 166.156 19.9887C165.026 21.1377 164.373 22.9112 164.993 24.3989C165.212 24.9249 165.575 25.3855 165.763 25.9241C165.909 26.4471 165.929 26.9971 165.822 27.5294C165.716 28.0618 165.485 28.5614 165.149 28.9877C164.469 29.8333 163.66 30.5652 162.75 31.1558C164.989 31.6704 167.289 31.8653 169.582 31.7348C171.892 31.5956 174.088 30.6813 175.814 29.1398C177.467 27.5513 178.376 25.0974 177.784 22.885C177.329 21.1878 176.058 19.7007 176.058 17.9437C176.058 16.5932 176.818 15.3748 177.552 14.243L182.356 6.8125C182.611 6.34494 182.969 5.94168 183.403 5.63339C184.178 5.16995 185.182 5.37377 185.998 5.75865C186.774 6.21967 187.588 6.61302 188.431 6.93434C189.329 7.14771 190.275 7.02225 191.086 6.58197C191.898 6.14169 192.518 5.41755 192.829 4.54823" fill="#2F2E41"/>
<path d="M185.937 26.7831C185.034 27.6576 183.732 27.9394 182.526 28.2941C181.319 28.6488 180.036 29.205 179.493 30.3403C179.259 30.9128 179.204 31.543 179.335 32.1475C179.467 32.752 179.778 33.3024 180.229 33.7262C181.158 34.5589 182.377 34.9928 183.623 34.9343C184.857 34.87 186.072 34.6006 187.217 34.1372C190.392 32.9872 193.383 31.3836 196.099 29.3764C195.229 29.1002 194.497 28.5035 194.051 27.7074C193.605 26.9112 193.478 25.9753 193.697 25.0893C194.105 23.6659 195.356 22.6713 196.206 21.458C197.671 19.3685 197.914 16.6146 197.43 14.1095C196.946 11.6044 195.803 9.28209 194.673 6.99277C194.352 6.25135 193.92 5.56295 193.393 4.95112C193.126 4.64695 192.795 4.4066 192.423 4.24783C192.051 4.08907 191.648 4.01596 191.244 4.03391C189.913 4.17226 189.062 5.63433 189.054 6.97285C189.045 8.31137 189.632 9.56961 190.079 10.8318C190.584 12.1205 190.807 13.5023 190.733 14.8844C190.628 16.0418 190.216 17.1499 189.538 18.0938C189.015 18.8174 188.349 19.4249 187.782 20.1132C187.315 20.626 186.989 21.2515 186.838 21.9283C186.628 23.166 187.354 24.4186 187.155 25.6586C187.026 26.3113 186.655 26.8912 186.116 27.2825C185.578 27.6737 184.912 27.8475 184.251 27.7691" fill="#2F2E41"/>
<path d="M152.788 178.174C173.257 178.174 189.85 161.581 189.85 141.113C189.85 120.644 173.257 104.051 152.788 104.051C132.32 104.051 115.727 120.644 115.727 141.113C115.727 161.581 132.32 178.174 152.788 178.174Z" fill="#00B795"/>
<path d="M174.997 138.134H170.39C169.818 134.763 168.29 131.627 165.986 129.099C163.683 126.571 160.703 124.758 157.399 123.875C154.095 122.992 150.607 123.076 147.35 124.118C144.093 125.16 141.204 127.116 139.026 129.753C139.005 129.777 138.984 129.802 138.964 129.827C138.726 130.14 138.621 130.534 138.673 130.923C138.725 131.312 138.928 131.665 139.239 131.905C139.55 132.145 139.943 132.252 140.333 132.203C140.722 132.154 141.077 131.953 141.319 131.644C143.106 129.478 145.469 127.863 148.136 126.984C150.803 126.105 153.663 125.999 156.388 126.678C159.112 127.357 161.589 128.793 163.531 130.821C165.474 132.848 166.803 135.384 167.365 138.134H163.302C163.161 138.135 163.023 138.175 162.904 138.251C162.785 138.327 162.69 138.436 162.63 138.563C162.57 138.691 162.548 138.834 162.567 138.974C162.585 139.114 162.642 139.246 162.733 139.354L168.58 146.373C168.65 146.457 168.737 146.524 168.836 146.571C168.935 146.617 169.042 146.641 169.151 146.641C169.26 146.641 169.368 146.617 169.467 146.571C169.565 146.524 169.653 146.457 169.722 146.373L175.57 139.354C175.661 139.246 175.718 139.114 175.736 138.974C175.754 138.834 175.732 138.691 175.673 138.563C175.613 138.436 175.518 138.327 175.399 138.251C175.28 138.175 175.142 138.135 175.001 138.134H174.997Z" fill="white"/>
<path d="M166.346 150.306C166.192 150.186 166.015 150.099 165.827 150.048C165.638 149.997 165.441 149.983 165.248 150.008C165.054 150.033 164.867 150.096 164.698 150.193C164.528 150.291 164.38 150.42 164.26 150.575C162.473 152.739 160.109 154.354 157.443 155.232C154.776 156.11 151.916 156.216 149.192 155.537C146.468 154.858 143.992 153.422 142.049 151.396C140.106 149.369 138.777 146.835 138.214 144.084H142.276C142.418 144.084 142.556 144.044 142.675 143.968C142.794 143.892 142.889 143.783 142.948 143.655C143.008 143.528 143.03 143.385 143.012 143.245C142.994 143.105 142.936 142.973 142.846 142.865L136.998 135.845C136.872 135.694 136.691 135.599 136.494 135.581C136.298 135.563 136.102 135.624 135.951 135.75C135.916 135.779 135.885 135.811 135.856 135.845L130.008 142.865C129.918 142.973 129.86 143.105 129.842 143.245C129.824 143.385 129.846 143.528 129.906 143.655C129.965 143.783 130.06 143.892 130.179 143.968C130.298 144.044 130.436 144.084 130.578 144.084H135.185C135.756 147.457 137.285 150.594 139.588 153.123C141.891 155.651 144.873 157.465 148.177 158.348C151.482 159.231 154.971 159.146 158.228 158.104C161.486 157.061 164.375 155.104 166.553 152.466C166.574 152.442 166.595 152.417 166.615 152.392C166.734 152.237 166.822 152.06 166.873 151.872C166.924 151.683 166.937 151.487 166.912 151.293C166.887 151.099 166.824 150.912 166.727 150.743C166.63 150.574 166.5 150.425 166.346 150.306H166.346Z" fill="white"/>
<path d="M163.135 103.422C162.686 106.634 160.665 109.006 158.621 108.72C156.577 108.434 155.284 105.599 155.734 102.386C155.896 101.1 156.363 99.8719 157.097 98.8038L159.173 85.2188L165.527 86.3278L162.809 99.602C163.222 100.831 163.335 102.141 163.137 103.422H163.135Z" fill="#FFB6B6"/>
<path d="M168.662 33.8718C168.662 33.8718 162.121 31.6918 161.25 39.5401C160.378 47.3885 159.506 56.9813 159.506 56.9813C159.506 56.9813 155.581 66.138 157.326 70.9342C159.07 75.7303 162.122 72.3866 159.07 76.4568C156.017 80.527 156.442 93.9162 156.442 93.9162L166.263 93.422C166.263 93.422 171.713 57.4157 171.713 56.5435C171.713 55.6713 168.661 33.8701 168.661 33.8701L168.662 33.8718Z" fill="#E6E6E6"/>
<path d="M211.174 101.967C211.296 105.208 209.722 107.897 207.659 107.975C205.597 108.052 203.827 105.487 203.706 102.245C203.64 100.951 203.885 99.6595 204.42 98.4791L204.078 84.7415L210.528 84.7188L210.18 98.2639C210.802 99.4005 211.143 100.669 211.174 101.965V101.967Z" fill="#FFB6B6"/>
<path d="M201.107 33.7287C201.107 33.7287 207.685 31.6659 208.417 39.5285C209.149 47.3911 209.849 61.7943 209.849 61.7943C209.849 61.7943 213.607 71.0176 211.78 75.7836C209.953 80.5495 206.959 77.15 209.938 81.2737C212.916 85.3975 211.847 97.0279 211.847 97.0279L202.036 96.3584C202.036 96.3584 197.635 62.0124 197.652 61.1401C197.67 60.2679 201.109 33.7287 201.109 33.7287H201.107Z" fill="#E6E6E6"/>
<path d="M32.0765 179.996C31.8058 180.008 31.5379 179.937 31.3089 179.792C31.08 179.647 30.9011 179.435 30.7966 179.185C30.6921 178.935 30.6669 178.659 30.7246 178.394C30.7822 178.13 30.9199 177.889 31.1189 177.705L31.2094 177.345L31.1735 177.259C30.901 176.614 30.4441 176.065 29.8602 175.679C29.2762 175.294 28.5914 175.089 27.8916 175.092C27.1919 175.095 26.5086 175.304 25.9276 175.694C25.3465 176.084 24.8937 176.637 24.6261 177.283C23.5557 179.862 22.1922 182.445 21.8568 185.171C21.709 186.377 21.7714 187.598 22.0413 188.782C19.527 183.298 18.2213 177.337 18.2125 171.303C18.212 169.789 18.2962 168.276 18.4647 166.772C18.604 165.538 18.797 164.313 19.0437 163.097C20.3912 156.498 23.2851 150.312 27.4876 145.049C29.5216 143.939 31.1665 142.233 32.2006 140.159C32.5752 139.414 32.8401 138.619 32.9868 137.798C32.7591 137.828 32.122 134.334 32.2951 134.119C31.9751 133.634 31.4029 133.393 31.0539 132.92C29.3175 130.565 26.9245 130.976 25.6754 134.176C23.0069 135.522 22.9813 137.756 24.6187 139.904C25.6606 141.27 25.8035 143.119 26.7173 144.583C26.6233 144.703 26.5254 144.819 26.4326 144.94C24.7138 147.15 23.2157 149.524 21.9599 152.026C22.2652 149.223 21.9007 146.387 20.8963 143.752C19.8784 141.296 17.9705 139.228 16.2898 137.105C15.8454 136.534 15.2419 136.109 14.5555 135.881C13.8691 135.654 13.1307 135.635 12.4336 135.827C11.7365 136.019 11.1121 136.414 10.6392 136.961C10.1664 137.508 9.86637 138.183 9.77711 138.901C9.7737 138.932 9.77028 138.963 9.76686 138.995C10.0166 139.135 10.2609 139.285 10.4996 139.443C10.7999 139.643 11.0326 139.93 11.1672 140.265C11.3018 140.6 11.3321 140.968 11.254 141.321C11.1759 141.673 10.9931 141.994 10.7295 142.241C10.466 142.488 10.134 142.649 9.77711 142.704L9.74068 142.71C9.82963 143.61 9.98683 144.501 10.2109 145.377C8.05542 153.713 12.7092 156.749 19.354 156.885C19.5009 156.961 19.6438 157.036 19.7901 157.108C18.5284 160.683 17.737 164.408 17.4359 168.187C17.2654 170.417 17.2755 172.657 17.4661 174.886L17.4547 174.807C16.9733 172.329 15.6514 170.093 13.7124 168.477C10.8327 166.111 6.76644 165.24 3.6567 163.338C3.32651 163.127 2.94267 163.014 2.55041 163.013C2.15814 163.012 1.77381 163.123 1.44269 163.334C1.11157 163.544 0.847473 163.844 0.681513 164.2C0.515552 164.555 0.454644 164.951 0.505974 165.34L0.518502 165.423C0.981748 165.611 1.43279 165.829 1.86898 166.073C2.11873 166.214 2.36297 166.364 2.60172 166.522C2.90202 166.722 3.13472 167.009 3.26933 167.344C3.40394 167.679 3.43418 168.047 3.35608 168.4C3.27798 168.752 3.09519 169.073 2.83166 169.32C2.56812 169.567 2.23614 169.728 1.87922 169.783L1.84278 169.789L1.76763 169.8C2.55902 171.69 3.6697 173.429 5.05102 174.942C6.39865 182.219 12.1877 182.909 18.3804 180.79H18.3844C19.0638 183.742 20.0481 186.616 21.3216 189.365H31.8152C31.8527 189.251 31.8869 189.128 31.9205 189.012C30.9493 189.073 29.9741 189.016 29.0168 188.841C29.7951 187.886 30.574 186.923 31.3511 185.967C31.3685 185.949 31.3849 185.93 31.4001 185.91C31.7952 185.421 32.1938 184.936 32.5883 184.447C32.6092 182.948 32.4369 181.453 32.0759 179.998L32.0765 179.996Z" fill="#F2F2F2"/>
<path d="M251.249 179.996C251.52 180.009 251.788 179.938 252.017 179.793C252.246 179.648 252.424 179.436 252.529 179.186C252.633 178.936 252.659 178.66 252.601 178.395C252.543 178.13 252.406 177.89 252.207 177.706L252.116 177.346L252.152 177.259C252.425 176.615 252.881 176.065 253.465 175.68C254.049 175.294 254.734 175.09 255.434 175.093C256.134 175.095 256.817 175.305 257.398 175.694C257.979 176.084 258.432 176.637 258.699 177.284C259.77 179.862 261.133 182.445 261.469 185.172C261.617 186.377 261.554 187.599 261.284 188.783C263.799 183.298 265.104 177.337 265.113 171.304C265.114 169.79 265.029 168.277 264.861 166.772C264.722 165.539 264.529 164.314 264.282 163.098C262.935 156.498 260.041 150.313 255.839 145.049C253.805 143.94 252.16 142.233 251.126 140.16C250.751 139.415 250.487 138.619 250.34 137.798C250.568 137.828 251.205 134.334 251.032 134.119C251.352 133.634 251.924 133.393 252.273 132.92C254.009 130.565 256.402 130.976 257.651 134.176C260.32 135.522 260.345 137.756 258.708 139.904C257.667 141.27 257.523 143.119 256.609 144.583C256.703 144.703 256.801 144.819 256.894 144.94C258.613 147.15 260.111 149.524 261.367 152.026C261.062 149.223 261.426 146.387 262.43 143.752C263.448 141.296 265.356 139.228 267.037 137.105C267.481 136.534 268.085 136.109 268.771 135.881C269.458 135.654 270.196 135.635 270.893 135.827C271.59 136.019 272.215 136.414 272.687 136.961C273.16 137.508 273.46 138.183 273.55 138.901C273.553 138.932 273.556 138.963 273.56 138.995C273.31 139.135 273.066 139.285 272.827 139.443C272.527 139.643 272.294 139.93 272.159 140.265C272.025 140.6 271.995 140.968 272.073 141.321C272.151 141.673 272.334 141.994 272.597 142.241C272.861 142.488 273.193 142.649 273.55 142.704L273.586 142.71C273.497 143.61 273.34 144.501 273.116 145.377C275.271 153.713 270.617 156.749 263.973 156.885C263.826 156.961 263.683 157.036 263.537 157.108C264.798 160.683 265.59 164.408 265.891 168.187C266.061 170.417 266.051 172.657 265.861 174.886L265.872 174.807C266.353 172.329 267.675 170.093 269.614 168.477C272.494 166.111 276.56 165.24 279.67 163.338C280 163.126 280.384 163.013 280.776 163.012C281.169 163.011 281.553 163.123 281.885 163.333C282.216 163.543 282.48 163.844 282.646 164.2C282.812 164.555 282.873 164.951 282.821 165.34L282.809 165.423C282.346 165.611 281.895 165.829 281.459 166.073C281.209 166.214 280.965 166.364 280.726 166.522C280.426 166.722 280.193 167.009 280.059 167.344C279.924 167.679 279.894 168.047 279.972 168.4C280.05 168.752 280.233 169.073 280.496 169.32C280.76 169.567 281.092 169.728 281.449 169.783L281.485 169.789L281.56 169.8C280.769 171.69 279.658 173.429 278.277 174.942C276.929 182.219 271.14 182.909 264.947 180.79H264.943C264.264 183.742 263.28 186.616 262.006 189.365H251.51C251.473 189.251 251.439 189.128 251.405 189.012C252.376 189.073 253.351 189.016 254.309 188.841C253.53 187.886 252.752 186.923 251.974 185.967C251.957 185.949 251.941 185.93 251.925 185.91C251.53 185.421 251.132 184.936 250.737 184.447C250.716 182.948 250.888 181.453 251.249 179.998V179.996Z" fill="#F2F2F2"/>
</svg>
