<svg width="24" height="25" viewBox="0 0 24 25" fill="none" xmlns="http://www.w3.org/2000/svg">
<path d="M12.002 9.07031C10.8974 9.07031 10.002 9.74188 10.002 10.5703C10.002 11.3987 10.8974 12.0703 12.002 12.0703C13.1065 12.0703 14.002 12.7419 14.002 13.5703C14.002 14.3987 13.1065 15.0703 12.002 15.0703M12.002 9.07031C12.8728 9.07031 13.6136 9.48771 13.8881 10.0703M12.002 9.07031V8.07031M12.002 15.0703C11.1311 15.0703 10.3903 14.6529 10.1158 14.0703M12.002 15.0703V16.0703" stroke="#475569" stroke-width="1.5" stroke-linecap="round"/>
<path d="M13.5 2.57031C13.5 2.57031 12.6839 2.57031 12 2.57031C7.52166 2.57031 5.28249 2.57031 3.89124 3.96156C2.5 5.3528 2.5 7.59197 2.5 12.0703C2.5 16.5486 2.5 18.7878 3.89124 20.1791C5.28249 21.5703 7.52166 21.5703 12 21.5703C16.4783 21.5703 18.7175 21.5703 20.1088 20.1791C21.5 18.7878 21.5 16.5486 21.5 12.0703C21.5 11.3864 21.5 10.5703 21.5 10.5703" stroke="#475569" stroke-width="1.5" stroke-linecap="round"/>
<path d="M16.5 7.57031L20.6758 3.39211M21.5 7.04855L21.3818 3.95706C21.3818 3.22842 20.9467 2.77443 20.1542 2.71717L17.0302 2.57031" stroke="#475569" stroke-width="1.5" stroke-linecap="round" stroke-linejoin="round"/>
</svg>
