<svg width="24" height="25" viewBox="0 0 24 25" fill="none" xmlns="http://www.w3.org/2000/svg">
<path d="M17 18.0703V16.0703M12 18.0703V15.0703M7 18.0703V13.0703M21.5 12.0703C21.5 7.59197 21.5 5.3528 20.1088 3.96155C18.7175 2.57031 16.4783 2.57031 12 2.57031C7.5217 2.57031 5.2825 2.57031 3.8912 3.96155C2.5 5.3528 2.5 7.59197 2.5 12.0703C2.5 16.5486 2.5 18.7878 3.8912 20.1791C5.2825 21.5703 7.5217 21.5703 12 21.5703C16.4783 21.5703 18.7175 21.5703 20.1088 20.1791C21.5 18.7878 21.5 16.5486 21.5 12.0703Z" stroke="#475569" stroke-width="1.5" stroke-linecap="round" stroke-linejoin="round"/>
<path d="M18.0078 11.5576C15.8527 11.6294 10.9659 11.3041 8.1863 6.89261M10.0077 6.35964L8.1322 6.05778C7.9036 6.02867 7.568 6.20914 7.4855 6.42427L6.9896 8.06271" stroke="#475569" stroke-width="1.5" stroke-linecap="round" stroke-linejoin="round"/>
</svg>
