<svg width="24" height="25" viewBox="0 0 24 25" fill="none" xmlns="http://www.w3.org/2000/svg">
<path d="M6.5 17.5703V14.5703M11.5 17.5703V8.57031M16.5 17.5703V13.5703" stroke="#475569" stroke-width="1.5" stroke-linecap="round"/>
<path d="M21.5 5.57031C21.5 7.22716 20.1569 8.57031 18.5 8.57031C16.8431 8.57031 15.5 7.22716 15.5 5.57031C15.5 3.91346 16.8431 2.57031 18.5 2.57031C20.1569 2.57031 21.5 3.91346 21.5 5.57031Z" stroke="#475569" stroke-width="1.5"/>
<path d="M21.4955 11.0703C21.4955 11.0703 21.5 11.4098 21.5 12.0703C21.5 16.5487 21.5 18.7878 20.1088 20.1791C18.7175 21.5703 16.4783 21.5703 12 21.5703C7.52166 21.5703 5.28249 21.5703 3.89124 20.1791C2.5 18.7878 2.5 16.5487 2.5 12.0703C2.5 7.592 2.5 5.35283 3.89124 3.96158C5.28249 2.57034 7.52166 2.57034 12 2.57034L13 2.57031" stroke="#475569" stroke-width="1.5" stroke-linecap="round" stroke-linejoin="round"/>
</svg>
