<svg width="24" height="25" viewBox="0 0 24 25" fill="none" xmlns="http://www.w3.org/2000/svg">
<path d="M17 18.0703V16.0703" stroke="#475569" stroke-width="1.5" stroke-linecap="round"/>
<path d="M12 18.0703V15.0703" stroke="#475569" stroke-width="1.5" stroke-linecap="round"/>
<path d="M7 18.0703V13.0703" stroke="#475569" stroke-width="1.5" stroke-linecap="round"/>
<path d="M6 7.07031C9.19706 10.3386 13.2338 11.1516 17.1413 10.0622M15.6881 8.54164L17.7617 9.5587C18.0076 9.67932 18.074 9.9586 17.91 10.1825L16.5269 12.0703" stroke="#475569" stroke-width="1.5" stroke-linecap="round" stroke-linejoin="round"/>
<path d="M2.5 12.0703C2.5 7.59197 2.5 5.3528 3.89124 3.96155C5.28249 2.57031 7.52166 2.57031 12 2.57031C16.4783 2.57031 18.7175 2.57031 20.1088 3.96155C21.5 5.3528 21.5 7.59197 21.5 12.0703C21.5 16.5486 21.5 18.7878 20.1088 20.1791C18.7175 21.5703 16.4783 21.5703 12 21.5703C7.52166 21.5703 5.28249 21.5703 3.89124 20.1791C2.5 18.7878 2.5 16.5486 2.5 12.0703Z" stroke="#475569" stroke-width="1.5" stroke-linejoin="round"/>
</svg>
