<svg width="40" height="41" viewBox="0 0 40 41" fill="none" xmlns="http://www.w3.org/2000/svg">
<circle cx="20" cy="20.5" r="20" fill="#EFF6FF"/>
<path fill-rule="evenodd" clip-rule="evenodd" d="M20.4416 9.75C19.7126 9.75 19.0425 9.93823 18.3011 10.2621C17.5821 10.5761 16.7484 11.0401 15.6996 11.6238L11.5575 13.9289C10.9811 14.2497 10.4987 14.6526 10.1673 15.1958C9.83422 15.7418 9.69157 16.3673 9.69157 17.0691L9.69149 17.1351C9.69103 17.3906 9.69056 17.6497 9.75213 17.8815C9.90709 18.4648 10.2764 18.8408 10.7286 19.0422C11.136 19.2238 11.5786 19.25 11.9108 19.25H28.9723C29.3045 19.25 29.7471 19.2238 30.1545 19.0422C30.6068 18.8408 30.976 18.4648 31.131 17.8815C31.1926 17.6497 31.1921 17.3906 31.1916 17.1351V17.0691C31.1916 16.3673 31.0489 15.7418 30.7159 15.1958C30.3845 14.6526 29.9021 14.2497 29.3256 13.9289L25.1835 11.6238C24.1348 11.0401 23.301 10.5761 22.582 10.2621C21.8406 9.93823 21.1706 9.75 20.4416 9.75ZM20.4375 14.5C19.8852 14.5 19.4375 14.9477 19.4375 15.5C19.4375 16.0523 19.8852 16.5 20.4375 16.5H20.4465C20.9988 16.5 21.4465 16.0523 21.4465 15.5C21.4465 14.9477 20.9988 14.5 20.4465 14.5H20.4375Z" fill="#3B82F6"/>
<path d="M9.69141 30.25C9.69141 28.5931 11.3703 27.25 13.4414 27.25H27.4414C29.5125 27.25 31.1914 28.5931 31.1914 30.25C31.1914 30.8023 30.6318 31.25 29.9414 31.25H10.9414C10.251 31.25 9.69141 30.8023 9.69141 30.25Z" fill="#3B82F6"/>
<path d="M13.4412 26H16.7914C16.98 26 17.0742 26 17.1328 25.9414C17.1914 25.8828 17.1914 25.7886 17.1914 25.6V20.9C17.1914 20.7114 17.1914 20.6172 17.1328 20.5586C17.0742 20.5 16.98 20.5 16.7914 20.5H11.9108C11.8947 20.5 11.8866 20.5 11.8818 20.5002C11.7765 20.5053 11.6967 20.5851 11.6916 20.6904C11.6914 20.6952 11.6914 20.7021 11.6914 20.716V25.7383C11.6914 25.9944 11.6914 26.1224 11.768 26.1825C11.8447 26.2426 11.9771 26.21 12.2419 26.1448C12.6261 26.0502 13.0278 26 13.4412 26Z" fill="#3B82F6"/>
<path d="M27.4412 26C27.8548 26 28.2566 26.0502 28.6409 26.1448C28.9057 26.2101 29.0381 26.2427 29.1148 26.1826C29.1914 26.1226 29.1914 25.9945 29.1914 25.7384V20.7157C29.1914 20.7021 29.1914 20.6953 29.1912 20.6906C29.1862 20.5851 29.1063 20.5052 29.0008 20.5002C28.9961 20.5 28.9881 20.5 28.9723 20.5H24.0914C23.9028 20.5 23.8086 20.5 23.75 20.5586C23.6914 20.6172 23.6914 20.7114 23.6914 20.9V25.6C23.6914 25.7886 23.6914 25.8828 23.75 25.9414C23.8086 26 23.9028 26 24.0914 26H27.4412Z" fill="#3B82F6"/>
</svg>
