<svg width="40" height="40" viewBox="0 0 40 40" fill="none" xmlns="http://www.w3.org/2000/svg">
<circle cx="20" cy="20" r="20" fill="#FEE2E2"/>
<path fill-rule="evenodd" clip-rule="evenodd" d="M26.8242 13.3274C26.8074 13.0281 26.774 12.7625 26.7077 12.5157C26.3462 11.1698 25.2926 10.1186 23.9436 9.75798C23.4435 9.62431 22.8663 9.62463 22.089 9.62505L12.1818 9.62509C10.5626 9.62509 9.25 10.9346 9.25 12.5501V19.8752C9.25 20.1411 9.58931 20.2932 9.82388 20.1681C10.7694 19.6639 11.9706 19.8102 12.7676 20.6072L14.2877 22.1273C14.4048 22.2445 14.5948 22.2445 14.7119 22.1273L16.232 20.6072C17.2084 19.6309 18.7913 19.6309 19.7676 20.6072C20.7439 21.5835 20.7439 23.1665 19.7676 24.1428L18.2475 25.6629C18.1303 25.78 18.1303 25.97 18.2475 26.0871L19.7676 27.6072C20.1232 27.9628 20.3493 28.3989 20.4458 28.8568C20.4776 29.0076 20.6047 29.125 20.7589 29.125H23.978C25.3014 29.125 26.3927 29.1251 27.2563 29.0092C28.1631 28.8876 28.9639 28.6224 29.6051 27.9827C30.2463 27.343 30.512 26.5441 30.6339 25.6395C30.7501 24.7778 30.75 23.6891 30.75 22.3688V20.2813C30.75 18.961 30.7501 17.8723 30.6339 17.0106C30.512 16.106 30.2463 15.3071 29.6051 14.6673C28.9639 14.0276 28.1631 13.7625 27.2563 13.6409C27.2053 13.634 27.1536 13.6276 27.101 13.6215C26.9496 13.6041 26.8327 13.4796 26.8242 13.3274ZM21.9541 11.5751C22.9259 11.5751 23.22 11.5834 23.4372 11.6415C24.1117 11.8218 24.6386 12.3474 24.8193 13.0204C24.8344 13.0765 24.8461 13.1379 24.8553 13.2148C24.8753 13.3841 24.7343 13.5258 24.5638 13.5254C24.3738 13.525 24.1784 13.5251 23.9776 13.5251H12.1814C11.6416 13.5251 11.2041 13.0885 11.2041 12.5501C11.2041 12.0116 11.6416 11.5751 12.1814 11.5751H21.9541ZM25.5 19.375C26.6046 19.375 27.5 20.2704 27.5 21.375C27.5 22.4796 26.6046 23.375 25.5 23.375C24.3954 23.375 23.5 22.4796 23.5 21.375C23.5 20.2704 24.3954 19.375 25.5 19.375Z" fill="#EF4444"/>
<path fill-rule="evenodd" clip-rule="evenodd" d="M10.2929 21.6679C10.6834 21.2774 11.3166 21.2774 11.7071 21.6679L14.5 24.4608L17.2929 21.6679C17.6834 21.2774 18.3166 21.2774 18.7071 21.6679C19.0976 22.0584 19.0976 22.6916 18.7071 23.0821L15.9142 25.875L18.7071 28.6679C19.0976 29.0584 19.0976 29.6916 18.7071 30.0821C18.3166 30.4726 17.6834 30.4726 17.2929 30.0821L14.5 27.2892L11.7071 30.0821C11.3166 30.4726 10.6834 30.4726 10.2929 30.0821C9.90237 29.6916 9.90237 29.0584 10.2929 28.6679L13.0858 25.875L10.2929 23.0821C9.90237 22.6916 9.90237 22.0584 10.2929 21.6679Z" fill="#EF4444"/>
</svg>
