<svg width="40" height="40" viewBox="0 0 40 40" fill="none" xmlns="http://www.w3.org/2000/svg">
<circle cx="20" cy="20" r="20" fill="#DBEAFE"/>
<path fill-rule="evenodd" clip-rule="evenodd" d="M26.9386 13.6712C26.9195 13.4345 26.8872 13.2187 26.8327 13.0157C26.4712 11.6698 25.4176 10.6186 24.0686 10.258C23.5685 10.1243 22.9913 10.1246 22.214 10.125L12.3068 10.1251C10.6876 10.1251 9.375 11.4346 9.375 13.0501V20.9214C9.37499 21.9989 9.37497 22.9498 9.40878 23.7826C9.41982 24.0547 9.42534 24.1907 9.49251 24.2696C9.50757 24.2873 9.51752 24.2968 9.5358 24.3112C9.61731 24.3751 9.78654 24.3751 10.125 24.3751C10.2738 24.3765 10.6516 24.396 11.0133 24.5111C11.208 24.5685 11.4135 24.6468 11.6258 24.7506C11.7109 24.7922 11.7535 24.813 11.7856 24.8207C11.88 24.8434 11.9616 24.8259 12.0386 24.7667C12.0648 24.7465 12.092 24.7139 12.1465 24.6486C12.7694 23.9018 13.5227 23.0785 14.348 22.3549C15.1475 21.6537 16.154 20.921 17.2904 20.5185C18.5919 20.0576 20.0206 20.739 20.4816 22.0405C20.9425 23.3419 20.2611 24.7707 18.9596 25.2316C18.6846 25.3291 18.2354 25.596 17.6447 26.114C17.0802 26.6091 16.51 27.2233 15.9859 27.8515C15.7525 28.1313 15.5389 28.4159 15.3459 28.6849C15.0664 29.0743 14.9267 29.269 15.0075 29.4308C15.0882 29.5927 15.3269 29.5982 15.8043 29.6091C16.4949 29.625 17.2583 29.625 18.0985 29.625H24.103C25.4264 29.625 26.5177 29.6251 27.3813 29.5092C28.2881 29.3876 29.0889 29.1224 29.7301 28.4827C30.3713 27.843 30.637 27.0441 30.7589 26.1395C30.8751 25.2778 30.875 24.1891 30.875 22.8688V20.7813C30.875 19.461 30.8751 18.3723 30.7589 17.5106C30.637 16.606 30.3713 15.8071 29.7301 15.1673C29.0889 14.5276 28.2881 14.2625 27.3813 14.1409C27.2284 14.1203 27.1519 14.1101 27.0998 14.0795C27.0474 14.0488 27.0132 14.0127 26.9852 13.9587C26.9575 13.905 26.9512 13.8271 26.9386 13.6712ZM22.0791 12.0751C23.0509 12.0751 23.345 12.0834 23.5622 12.1415C24.2367 12.3218 24.7636 12.8474 24.9443 13.5204C24.9826 13.6629 25.0017 13.7341 24.9737 13.8193C24.955 13.8758 24.9029 13.9437 24.8532 13.9763C24.7781 14.0254 24.6824 14.0253 24.4909 14.0252L24.1026 14.0251H12.3064C11.7666 14.0251 11.3291 13.5885 11.3291 13.0501C11.3291 12.5116 11.7666 12.0751 12.3064 12.0751H22.0791ZM25.625 19.8751C26.7296 19.8751 27.625 20.7706 27.625 21.8751C27.625 22.9797 26.7296 23.8751 25.625 23.8751C24.5204 23.8751 23.625 22.9797 23.625 21.8751C23.625 20.7706 24.5204 19.8751 25.625 19.8751Z" fill="#3B82F6"/>
<path d="M19.0676 22.5414C19.252 23.062 18.9794 23.6335 18.4588 23.8179C17.9252 24.0069 17.3087 24.4138 16.6557 24.9865C16.013 25.5501 15.3878 26.2271 14.8341 26.8909C14.2822 27.5524 13.8135 28.1861 13.4824 28.6551C13.3172 28.8891 13.1872 29.0808 13.0993 29.2129L12.9691 29.4115C12.7758 29.7156 12.4337 29.8924 12.0739 29.874C11.7139 29.8555 11.3918 29.6448 11.2306 29.3225C10.7899 28.4411 10.3946 28.0902 10.1953 27.9573C10.111 27.9011 10.054 27.8786 10.0314 27.8709C9.52299 27.8237 9.125 27.396 9.125 26.8753C9.125 26.323 9.57272 25.8753 10.125 25.8753C10.2074 25.8761 10.4121 25.8911 10.5716 25.945C10.7795 26.0044 11.0303 26.1103 11.3047 26.2932C11.579 26.4761 11.8666 26.7288 12.1554 27.0747C12.4706 26.6439 12.859 26.1363 13.2983 25.6097C13.8916 24.8985 14.59 24.1379 15.337 23.4828C16.0736 22.8368 16.913 22.2436 17.7912 21.9326C18.3118 21.7483 18.8832 22.0208 19.0676 22.5414Z" fill="#3B82F6"/>
</svg>
