<svg width="40" height="40" viewBox="0 0 40 40" fill="none" xmlns="http://www.w3.org/2000/svg">
<circle cx="20" cy="20" r="20" fill="#CCF0E9"/>
<path d="M24.8357 16.1127C27.251 18.4506 28.8807 21.5816 29.4341 24.8954C29.7174 26.5918 29.0627 28.0804 27.9375 29.12C26.8235 30.1493 25.2442 30.75 23.597 30.75H16.4031C14.7559 30.75 13.1765 30.1493 12.0625 29.12C10.9373 28.0804 10.2826 26.5918 10.5659 24.8954C11.236 20.883 13.3201 17.8974 15.1382 16.138C15.2307 16.0485 15.3232 15.9608 15.4274 15.8847C15.6524 15.7204 16.0547 15.5576 16.3307 15.5191C16.468 15.5 16.5668 15.5 16.7643 15.5H23.2357C23.4332 15.5 23.532 15.5 23.6693 15.5191C23.9453 15.5576 24.3476 15.7204 24.5726 15.8847C24.6846 15.9665 24.735 16.0153 24.8357 16.1127Z" fill="#00B795"/>
<path d="M18.6415 9.90644C18.8877 9.65936 19.3527 9.25 20 9.25C20.6473 9.25 21.1123 9.65936 21.3585 9.90644C21.657 10.206 21.8949 10.6537 22.2737 10.8541C22.5869 11.0198 22.9909 10.8589 23.3035 10.7774C23.6014 10.6999 24.0555 10.5824 24.5367 10.6465C24.7458 10.6743 25.0202 10.7408 25.2327 10.9301C25.4845 11.1542 25.5251 11.4332 25.4883 11.6439C25.4435 11.9004 25.2847 12.1109 25.1287 12.311L24.2364 13.4599C24.0064 13.7568 23.7788 14.0619 23.4732 14.2864C23.2468 14.4526 22.9603 14.5 22.6795 14.5H17.3205C17.0397 14.5 16.7532 14.4526 16.5268 14.2864C16.2212 14.0619 15.9936 13.7568 15.7636 13.4599L14.8713 12.311C14.7153 12.1109 14.5565 11.9004 14.5117 11.6439C14.4749 11.4332 14.5155 11.1542 14.7673 10.9301C14.9799 10.7408 15.2542 10.6743 15.4633 10.6465C15.9445 10.5824 16.3986 10.6999 16.6966 10.7774C17.0091 10.8589 17.4131 11.0198 17.7263 10.8541C18.1052 10.6537 18.343 10.206 18.6415 9.90644Z" fill="#00B795"/>
</svg>
