<svg width="40" height="40" viewBox="0 0 40 40" fill="none" xmlns="http://www.w3.org/2000/svg">
<circle cx="20" cy="20" r="20" fill="#FFEDD5"/>
<path fill-rule="evenodd" clip-rule="evenodd" d="M15.7889 11.3855C15.8778 11.5209 15.7775 11.7519 15.5769 12.2137C15.4996 12.3915 15.4296 12.5731 15.3671 12.7582C15.2929 12.9777 15.2558 13.0875 15.1774 13.1437C15.099 13.2 14.9901 13.2 14.7724 13.2H12.1814C11.6416 13.2 11.2041 13.6365 11.2041 14.175C11.2041 14.7135 11.6416 15.15 12.1814 15.15H23.9776C24.8093 15.1373 26.6295 15.1427 27.2563 15.2658C28.1631 15.3874 28.9639 15.6526 29.6051 16.2923C30.2462 16.932 30.512 17.7309 30.6339 18.6356C30.7501 19.4972 30.75 20.5859 30.75 21.9062V23.9938C30.75 25.314 30.7501 26.4027 30.6339 27.2644C30.512 28.169 30.2462 28.968 29.6051 29.6077C28.9639 30.2474 28.1631 30.5125 27.2563 30.6342C26.3926 30.75 25.3014 30.75 23.978 30.7499H17.974C16.192 30.75 14.7556 30.75 13.6259 30.5985C12.453 30.4411 11.4655 30.1046 10.6812 29.3221C9.89687 28.5396 9.55952 27.5544 9.40183 26.3842C9.24995 25.2572 9.24997 23.8242 9.25 22.0463V14.175C9.25 12.5596 10.5626 11.25 12.1818 11.25L14.9962 11.25C15.4655 11.25 15.7001 11.25 15.7889 11.3855ZM25.5 20.9998C26.6046 20.9998 27.5 21.8952 27.5 22.9998C27.5 24.1043 26.6046 24.9998 25.5 24.9998C24.3954 24.9998 23.5 24.1043 23.5 22.9998C23.5 21.8952 24.3954 20.9998 25.5 20.9998Z" fill="#F97316"/>
<path d="M27.4557 14.0315C27.563 14.0463 27.6555 13.9536 27.6339 13.8474C27.1001 11.2241 24.7803 9.25 21.9994 9.25C19.3264 9.25 17.0793 11.074 16.435 13.5452C16.3875 13.7277 16.5296 13.9001 16.7182 13.9001H23.9679C24.3968 13.8937 25.0712 13.8919 25.7232 13.9074C26.3197 13.9216 27.0159 13.9516 27.4557 14.0315Z" fill="#F97316"/>
</svg>
