<svg width="40" height="40" viewBox="0 0 40 40" fill="none" xmlns="http://www.w3.org/2000/svg">
<circle cx="20" cy="20" r="20" fill="#E5F7F4"/>
<path fill-rule="evenodd" clip-rule="evenodd" d="M16.2303 11.3855C16.3192 11.5209 16.2189 11.7519 16.0183 12.2137C15.941 12.3915 15.871 12.5731 15.8085 12.7582C15.7343 12.9777 15.6972 13.0875 15.6188 13.1437C15.5404 13.2 15.4315 13.2 15.2138 13.2H12.6228C12.083 13.2 11.6455 13.6365 11.6455 14.175C11.6455 14.7135 12.083 15.15 12.6228 15.15H24.419C25.2507 15.1373 27.0709 15.1427 27.6977 15.2658C28.6045 15.3874 29.4053 15.6526 30.0465 16.2923C30.6876 16.932 30.9534 17.7309 31.0753 18.6356C31.1915 19.4972 31.1914 20.5859 31.1914 21.9062V23.9938C31.1914 25.314 31.1915 26.4027 31.0753 27.2644C30.9534 28.169 30.6876 28.968 30.0465 29.6077C29.4053 30.2474 28.6045 30.5125 27.6977 30.6342C26.834 30.75 25.7428 30.75 24.4194 30.7499H18.4154C16.6334 30.75 15.197 30.75 14.0673 30.5985C12.8944 30.4411 11.9069 30.1046 11.1226 29.3221C10.3383 28.5396 10.0009 27.5544 9.84324 26.3842C9.69136 25.2572 9.69138 23.8242 9.69141 22.0463V14.175C9.69141 12.5596 11.004 11.25 12.6232 11.25L15.4376 11.25C15.9069 11.25 16.1415 11.25 16.2303 11.3855ZM25.9414 20.9998C27.046 20.9998 27.9414 21.8952 27.9414 22.9998C27.9414 24.1043 27.046 24.9998 25.9414 24.9998C24.8368 24.9998 23.9414 24.1043 23.9414 22.9998C23.9414 21.8952 24.8368 20.9998 25.9414 20.9998Z" fill="#00B795"/>
<path d="M27.8971 14.0315C28.0044 14.0463 28.0969 13.9536 28.0753 13.8474C27.5415 11.2241 25.2217 9.25 22.4408 9.25C19.7678 9.25 17.5207 11.074 16.8764 13.5452C16.8289 13.7277 16.971 13.9001 17.1596 13.9001H24.4093C24.8382 13.8937 25.5126 13.8919 26.1646 13.9074C26.7611 13.9216 27.4573 13.9516 27.8971 14.0315Z" fill="#00B795"/>
</svg>
