<svg width="20" height="20" viewBox="0 0 20 20" fill="none" xmlns="http://www.w3.org/2000/svg">
<path d="M12.5 6.2487C12.5 6.2487 12.9167 6.2487 13.3333 7.08203C13.3333 7.08203 14.6568 4.9987 15.8333 4.58203" stroke="#475569" stroke-width="1.5" stroke-linecap="round" stroke-linejoin="round"/>
<path d="M18.3333 5.83464C18.3333 8.13582 16.4678 10.0013 14.1667 10.0013C11.8655 10.0013 10 8.13582 10 5.83464C10 3.53345 11.8655 1.66797 14.1667 1.66797C16.4678 1.66797 18.3333 3.53345 18.3333 5.83464Z" stroke="#475569" stroke-width="1.5" stroke-linecap="round"/>
<path d="M18.9577 11.0385C18.9571 10.6933 18.6768 10.414 18.3316 10.4146C17.9864 10.4152 17.7071 10.6955 17.7077 11.0407L18.9577 11.0385ZM7.5542 5.6289C7.89937 5.62694 8.17761 5.34554 8.17566 5.00037C8.1737 4.6552 7.8923 4.37697 7.54713 4.37892L7.5542 5.6289ZM11.2494 17.7101H8.74935V18.9601H11.2494V17.7101ZM8.74935 17.7101C7.16861 17.7101 6.03562 17.7092 5.16514 17.6109C4.30615 17.5138 3.78567 17.3291 3.39292 17.0189L2.61821 17.9999C3.27102 18.5155 4.05637 18.7435 5.02483 18.853C5.98182 18.961 7.19795 18.9601 8.74935 18.9601V17.7101ZM1.04102 11.6685C1.04102 13.1259 1.03982 14.2782 1.1557 15.187C1.27378 16.1129 1.52169 16.8676 2.07683 17.4903L3.00987 16.6585C2.68767 16.297 2.49692 15.8228 2.39567 15.0288C2.29221 14.2176 2.29102 13.159 2.29102 11.6685H1.04102ZM3.39292 17.0189C3.25389 16.9091 3.12577 16.7885 3.00987 16.6585L2.07683 17.4903C2.24158 17.6751 2.42277 17.8455 2.61821 17.9999L3.39292 17.0189ZM17.7077 11.6685C17.7077 13.159 17.7065 14.2176 17.603 15.0288C17.5018 15.8228 17.311 16.297 16.9888 16.6585L17.9219 17.4903C18.477 16.8676 18.7249 16.1129 18.843 15.187C18.9588 14.2782 18.9577 13.1259 18.9577 11.6685H17.7077ZM11.2494 18.9601C12.8008 18.9601 14.0168 18.961 14.9739 18.853C15.9424 18.7435 16.7277 18.5155 17.3805 17.9999L16.6058 17.0189C16.213 17.3291 15.6925 17.5138 14.8335 17.6109C13.9631 17.7092 12.8301 17.7101 11.2494 17.7101V18.9601ZM16.9888 16.6585C16.8729 16.7885 16.7449 16.9091 16.6058 17.0189L17.3805 17.9999C17.5759 17.8455 17.7571 17.6751 17.9219 17.4903L16.9888 16.6585ZM2.29102 11.6685C2.29102 10.178 2.29221 9.11938 2.39567 8.30812C2.49692 7.51412 2.68767 7.03985 3.00987 6.67847L2.07683 5.84663C1.52169 6.46931 1.27378 7.22404 1.1557 8.15001C1.03982 9.05872 1.04102 10.211 1.04102 11.6685H2.29102ZM2.61821 5.33703C2.42277 5.49137 2.24158 5.66184 2.07683 5.84663L3.00987 6.67847C3.12577 6.54847 3.25389 6.42781 3.39292 6.31802L2.61821 5.33703ZM18.9577 11.6685C18.9577 11.4525 18.958 11.241 18.9577 11.0385L17.7077 11.0407C17.708 11.2419 17.7077 11.4495 17.7077 11.6685H18.9577ZM7.54713 4.37892C6.37417 4.38556 5.41944 4.41257 4.63733 4.536C3.84352 4.66128 3.18153 4.89215 2.61821 5.33703L3.39292 6.31802C3.73232 6.04998 4.16705 5.87569 4.8322 5.77072C5.50905 5.6639 6.37551 5.63557 7.5542 5.6289L7.54713 4.37892Z" fill="#475569"/>
<path d="M8.33398 15H9.58398" stroke="#475569" stroke-width="1.5" stroke-miterlimit="10" stroke-linecap="round" stroke-linejoin="round"/>
<path d="M12.084 15H15.0007" stroke="#475569" stroke-width="1.5" stroke-miterlimit="10" stroke-linecap="round" stroke-linejoin="round"/>
<path d="M2.08398 9.16797H8.33398" stroke="#475569" stroke-width="1.5" stroke-linecap="round" stroke-linejoin="round"/>
</svg>
