<svg width="21" height="21" viewBox="0 0 21 21" fill="none" xmlns="http://www.w3.org/2000/svg">
<path d="M10.5806 3.13842L10.6777 3.13281C11.1051 3.13281 11.4573 3.45451 11.5055 3.86896L11.5111 3.96615V9.79948H17.3444C17.7718 9.79948 18.124 10.1212 18.1721 10.5356L18.1777 10.6328C18.1777 11.0602 17.856 11.4124 17.4416 11.4605L17.3444 11.4661H11.5111V17.2995C11.5111 17.7268 11.1894 18.0791 10.7749 18.1272L10.6777 18.1328C10.2504 18.1328 9.89815 17.8111 9.85001 17.3967L9.8444 17.2995V11.4661H4.01107C3.5837 11.4661 3.23148 11.1444 3.18334 10.73L3.17773 10.6328C3.17773 10.2054 3.49943 9.85322 3.91388 9.80509L4.01107 9.79948H9.8444V3.96615C9.8444 3.53878 10.1661 3.18656 10.5806 3.13842L10.6777 3.13281L10.5806 3.13842Z" fill="white"/>
</svg>
