<svg width="20" height="20" viewBox="0 0 20 20" fill="none" xmlns="http://www.w3.org/2000/svg">
<path fill-rule="evenodd" clip-rule="evenodd" d="M17.2244 8.25391H2.37109C2.02609 8.25391 1.74609 7.97391 1.74609 7.62891C1.74609 7.28391 2.02609 7.00391 2.37109 7.00391H17.2244C17.5694 7.00391 17.8494 7.28391 17.8494 7.62891C17.8494 7.97391 17.5694 8.25391 17.2244 8.25391Z" fill="#64748B"/>
<path fill-rule="evenodd" clip-rule="evenodd" d="M13.5033 11.5078C13.1583 11.5078 12.875 11.2278 12.875 10.8828C12.875 10.5378 13.1508 10.2578 13.4958 10.2578H13.5033C13.8483 10.2578 14.1283 10.5378 14.1283 10.8828C14.1283 11.2278 13.8483 11.5078 13.5033 11.5078Z" fill="#64748B"/>
<path fill-rule="evenodd" clip-rule="evenodd" d="M9.80411 11.5078C9.45911 11.5078 9.17578 11.2278 9.17578 10.8828C9.17578 10.5378 9.45161 10.2578 9.79661 10.2578H9.80411C10.1491 10.2578 10.4291 10.5378 10.4291 10.8828C10.4291 11.2278 10.1491 11.5078 9.80411 11.5078Z" fill="#64748B"/>
<path fill-rule="evenodd" clip-rule="evenodd" d="M6.09792 11.5078C5.75292 11.5078 5.46875 11.2278 5.46875 10.8828C5.46875 10.5378 5.74542 10.2578 6.09042 10.2578H6.09792C6.44292 10.2578 6.72292 10.5378 6.72292 10.8828C6.72292 11.2278 6.44292 11.5078 6.09792 11.5078Z" fill="#64748B"/>
<path fill-rule="evenodd" clip-rule="evenodd" d="M13.5033 14.7461C13.1583 14.7461 12.875 14.4661 12.875 14.1211C12.875 13.7761 13.1508 13.4961 13.4958 13.4961H13.5033C13.8483 13.4961 14.1283 13.7761 14.1283 14.1211C14.1283 14.4661 13.8483 14.7461 13.5033 14.7461Z" fill="#64748B"/>
<path fill-rule="evenodd" clip-rule="evenodd" d="M9.80411 14.7461C9.45911 14.7461 9.17578 14.4661 9.17578 14.1211C9.17578 13.7761 9.45161 13.4961 9.79661 13.4961H9.80411C10.1491 13.4961 10.4291 13.7761 10.4291 14.1211C10.4291 14.4661 10.1491 14.7461 9.80411 14.7461Z" fill="#64748B"/>
<path fill-rule="evenodd" clip-rule="evenodd" d="M6.09792 14.7461C5.75292 14.7461 5.46875 14.4661 5.46875 14.1211C5.46875 13.7761 5.74542 13.4961 6.09042 13.4961H6.09792C6.44292 13.4961 6.72292 13.7761 6.72292 14.1211C6.72292 14.4661 6.44292 14.7461 6.09792 14.7461Z" fill="#64748B"/>
<path fill-rule="evenodd" clip-rule="evenodd" d="M13.1641 4.82453C12.8191 4.82453 12.5391 4.54453 12.5391 4.19953V1.45703C12.5391 1.11203 12.8191 0.832031 13.1641 0.832031C13.5091 0.832031 13.7891 1.11203 13.7891 1.45703V4.19953C13.7891 4.54453 13.5091 4.82453 13.1641 4.82453Z" fill="#64748B"/>
<path fill-rule="evenodd" clip-rule="evenodd" d="M6.42969 4.82453C6.08469 4.82453 5.80469 4.54453 5.80469 4.19953V1.45703C5.80469 1.11203 6.08469 0.832031 6.42969 0.832031C6.77469 0.832031 7.05469 1.11203 7.05469 1.45703V4.19953C7.05469 4.54453 6.77469 4.82453 6.42969 4.82453Z" fill="#64748B"/>
<mask id="mask0_6807_17801" style="mask-type:luminance" maskUnits="userSpaceOnUse" x="1" y="2" width="17" height="17">
<path fill-rule="evenodd" clip-rule="evenodd" d="M1.66797 2.14844H17.918V18.7492H1.66797V2.14844Z" fill="white"/>
</mask>
<g mask="url(#mask0_6807_17801)">
<path fill-rule="evenodd" clip-rule="evenodd" d="M6.2688 3.39844C4.10797 3.39844 2.91797 4.55094 2.91797 6.64344V14.1843C2.91797 16.3226 4.10797 17.4993 6.2688 17.4993H13.3171C15.478 17.4993 16.668 16.3443 16.668 14.2476V6.64344C16.6713 5.61427 16.3946 4.81427 15.8455 4.26427C15.2805 3.6976 14.4096 3.39844 13.3246 3.39844H6.2688ZM13.3171 18.7493H6.2688C3.4313 18.7493 1.66797 17.0001 1.66797 14.1843V6.64344C1.66797 3.8701 3.4313 2.14844 6.2688 2.14844H13.3246C14.7488 2.14844 15.9263 2.5751 16.7305 3.38094C17.5113 4.1651 17.9221 5.2926 17.918 6.6451V14.2476C17.918 17.0243 16.1546 18.7493 13.3171 18.7493Z" fill="#64748B"/>
</g>
</svg>
