<svg width="25" height="25" viewBox="0 0 25 25" fill="none" xmlns="http://www.w3.org/2000/svg">
<path fill-rule="evenodd" clip-rule="evenodd" d="M12.8984 5.60156C12.6223 5.60156 12.3984 5.3777 12.3984 5.10156C12.3984 4.82542 12.6223 4.60156 12.8984 4.60156C13.1745 4.60156 13.3984 4.82542 13.3984 5.10156C13.3984 5.3777 13.1745 5.60156 12.8984 5.60156ZM10.3984 5.10156C10.3984 6.48227 11.5177 7.60156 12.8984 7.60156C14.2791 7.60156 15.3984 6.48227 15.3984 5.10156C15.3984 3.72085 14.2791 2.60156 12.8984 2.60156C11.5177 2.60156 10.3984 3.72085 10.3984 5.10156Z" fill="#64748B"/>
<path fill-rule="evenodd" clip-rule="evenodd" d="M12.8984 13.1016C12.6223 13.1016 12.3984 12.8777 12.3984 12.6016C12.3984 12.3255 12.6223 12.1016 12.8984 12.1016C13.1745 12.1016 13.3984 12.3255 13.3984 12.6016C13.3984 12.8777 13.1745 13.1016 12.8984 13.1016ZM10.3984 12.6016C10.3984 13.9823 11.5177 15.1016 12.8984 15.1016C14.2791 15.1016 15.3984 13.9823 15.3984 12.6016C15.3984 11.2209 14.2791 10.1016 12.8984 10.1016C11.5177 10.1016 10.3984 11.2209 10.3984 12.6016Z" fill="#64748B"/>
<path fill-rule="evenodd" clip-rule="evenodd" d="M12.8984 20.6016C12.6223 20.6016 12.3984 20.3777 12.3984 20.1016C12.3984 19.8255 12.6223 19.6016 12.8984 19.6016C13.1745 19.6016 13.3984 19.8255 13.3984 20.1016C13.3984 20.3777 13.1745 20.6016 12.8984 20.6016ZM10.3984 20.1016C10.3984 21.4823 11.5177 22.6016 12.8984 22.6016C14.2791 22.6016 15.3984 21.4823 15.3984 20.1016C15.3984 18.7209 14.2791 17.6016 12.8984 17.6016C11.5177 17.6016 10.3984 18.7209 10.3984 20.1016Z" fill="#64748B"/>
</svg>
