<svg width="20" height="20" viewBox="0 0 20 20" fill="none" xmlns="http://www.w3.org/2000/svg">
<path d="M5.78125 8.33203C5.20547 8.33628 4.85901 8.35395 4.58304 8.42703C3.32702 8.75961 2.46711 9.88528 2.50097 11.1526C2.51077 11.5197 2.65052 11.9734 2.93 12.8808C3.60262 15.0645 4.73302 16.9603 7.26537 17.4151C7.73087 17.4987 8.25467 17.4987 9.30225 17.4987H10.6977C11.7453 17.4987 12.2692 17.4987 12.7347 17.4151C15.267 16.9603 16.3974 15.0645 17.07 12.8808C17.3495 11.9734 17.4892 11.5197 17.499 11.1526C17.5329 9.88528 16.673 8.75961 15.417 8.42703C15.141 8.35395 14.7945 8.33628 14.2187 8.33203" stroke="#00B795" stroke-width="1.25" stroke-linecap="round"/>
<path d="M10.0013 2.5V11.6667M10.0013 2.5C10.3916 2.5 10.6883 2.86508 11.2816 3.59525L12.0846 4.58333M10.0013 2.5C9.61097 2.5 9.3143 2.86508 8.72097 3.59525L7.91797 4.58333" stroke="#00B795" stroke-width="1.25" stroke-linecap="round" stroke-linejoin="round"/>
</svg>
