<svg width="581" height="580" viewBox="0 0 581 580" fill="none" xmlns="http://www.w3.org/2000/svg">
<path d="M177.751 210.71L128.677 241.247C128.677 241.247 52.2814 141.957 6.45801 115.777L541.731 63.418C541.731 63.418 138.499 120.135 106.855 139.814L177.751 210.71Z" fill="#4E4E4F"/>
<path d="M574.379 63.418C574.379 63.418 393.264 111.706 259.58 371.645L207.756 257.069L164.111 289.82C164.111 289.82 245.972 438.755 251.079 516.58C251.079 516.58 362.977 192.709 574.379 63.418Z" fill="#34A487"/>
<path d="M38.0957 362.104C38.0957 362.104 176.352 191.24 495.972 82.6641C495.972 82.6641 252.676 168.382 38.0957 362.104Z" fill="#4E4E4F"/>
</svg>
